<?xml version="1.0" encoding="UTF-8"?>
<svg width="324px" height="200px" viewBox="0 0 324 200" version="1.1" xmlns="http://www.w3.org/2000/svg" xmlns:xlink="http://www.w3.org/1999/xlink">
    <title>sign_Illustration 2</title>
    <g id="页面-1" stroke="none" stroke-width="1" fill="none" fill-rule="evenodd">
        <g id="登录" transform="translate(-306.000000, -307.000000)" fill-rule="nonzero">
            <g id="编组-5" transform="translate(270.000000, 180.000000)">
                <g id="sign_Illustration" transform="translate(36.000000, 127.000000)">
                    <rect id="矩形" fill="#FF725E" transform="translate(164.698185, 137.985882) scale(-1, 1) translate(-164.698185, -137.985882) " x="43.7917311" y="125.902588" width="241.812908" height="24.1665882"></rect>
                    <g id="编组" opacity="0.4" transform="translate(164.371462, 138.113983) scale(-1, 1) translate(-164.371462, -138.113983) translate(42.871462, 125.613983)" fill="#000000">
                        <rect id="矩形" x="0.266823529" y="0.288605042" width="241.812908" height="24.1665882"></rect>
                    </g>
                    <polygon id="路径" fill="#263238" transform="translate(111.387933, 157.788000) scale(-1, 1) translate(-111.387933, -157.788000) " points="5.33647059 142.99563 5.33647059 172.58037 29.7099832 172.58037 39.4789916 158.422387 217.439395 158.422387 217.439395 142.99563"></polygon>
                    <path d="M321.007579,49.3133445 C320.95189,48.3236922 320.113999,47.5608722 319.123478,47.5980504 C309.490604,47.995563 263.760319,50.0920336 254.356151,54.6116975 C247.157361,58.074958 239.272453,71.0022857 233.712722,79.7094454 C229.726705,85.9498487 220.921529,99.8028908 219.14089,106.887328 C217.63252,112.877244 216.723142,125.336269 216.826604,131.516773 L219.342369,164.221714 L260.787142,164.221714 L264.93652,153.418084 C267.647055,146.373519 274.416179,141.725835 281.964218,141.726857 L323.147613,141.726857 L323.147613,87.4527731 L321.007579,49.3133445 Z" id="路径" fill="#FF6C23" transform="translate(269.983117, 105.909231) scale(-1, 1) translate(-269.983117, -105.909231) "></path>
                    <path d="M320.449613,58.2328739 C314.742857,63.6782521 309.014319,72.935395 304.717916,79.7094454 C301.02595,85.4869916 293.206387,97.7881008 290.652504,105.204706 C290.603496,105.34084 290.565378,105.471529 290.521815,105.607664 C291.785143,105.25916 293.729143,104.545815 294.33358,103.347832 C295.242958,101.534521 296.408269,95.3213445 310.816739,71.8681008 C315.194824,64.7183193 319.464,60.5362689 320.449613,58.2328739 Z" id="路径" fill="#455A64" transform="translate(305.485714, 81.920269) scale(-1, 1) translate(-305.485714, -81.920269) "></path>
                    <path d="M303.784917,55.8096807 C293.188211,56.4141176 270.214161,57.9878319 262.873791,60.4818151 C253.311707,63.749042 242.578866,89.064605 242.072446,90.1754622 L234.840984,108.689748 C234.758755,108.935276 234.79926,109.205362 234.950517,109.415698 C235.101528,109.626035 235.344405,109.751004 235.603337,109.751597 L254.29732,109.751597 C255.005332,109.751597 255.707765,109.626384 256.372009,109.381311 L305.538329,91.0521681 C307.76145,90.2225741 309.235741,88.0994543 309.235741,85.7265882 L309.235741,60.9664538 C309.235741,59.5467911 308.652497,58.1894897 307.621212,57.2138388 C306.589927,56.2381879 305.202359,55.7303111 303.784917,55.8096807 L303.784917,55.8096807 Z" id="路径" fill="#263238" transform="translate(272.017500, 82.776597) scale(-1, 1) translate(-272.017500, -82.776597) "></path>
                    <path d="M236.607126,107.93284 C236.607126,107.93284 243.533647,92.3971765 245.864269,87.3057479 C249.381983,79.6168739 257.599059,63.8906218 263.147899,62.1971092 C268.250218,60.666958 282.920067,58.8046387 303.568941,57.6229916 L303.764975,57.6229916 C305.611155,57.6289833 307.10545,59.1257114 307.108437,60.9718992 L307.108437,86.2929076 C307.104376,87.5705009 306.311162,88.7126418 305.115429,89.1626218 L268.789311,93.6441681 C265.842099,94.0078602 263.203721,95.6486326 261.574185,98.1311597 L255.279328,107.731361 C254.90981,107.86815 254.518931,107.938286 254.124908,107.938286 L236.607126,107.93284 Z" id="路径" fill="#455A64" transform="translate(271.857782, 82.780639) scale(-1, 1) translate(-271.857782, -82.780639) "></path>
                    <path d="M288.594151,93.9218824 L276.244034,107.676908 L283.077983,62.006521 L284.787832,61.4184202 L281.422588,95.2505546 C281.390318,95.5960117 281.540057,95.9333849 281.817892,96.1412057 C282.095728,96.3490265 282.461658,96.3973737 282.783933,96.2688403 L288.594151,93.9218824 Z" id="路径" fill="#263238" transform="translate(282.419092, 84.547664) scale(-1, 1) translate(-282.419092, -84.547664) "></path>
                    <path d="M315.450427,134.691429 C315.406864,134.097882 315.608343,133.602353 315.913284,133.602353 L322.534864,132.992471 C323.079402,132.938017 323.585822,133.967193 323.651167,135.170622 L323.950662,140.25116 C323.999671,141.067966 323.754629,141.759529 323.406125,141.819429 L316.653856,142.984739 C316.348915,143.039193 316.054864,142.587227 316.011301,141.988235 L315.450427,134.691429 Z" id="路径" fill="#EBEBEB" transform="translate(319.700709, 137.989796) scale(-1, 1) translate(-319.700709, -137.989796) "></path>
                    <rect id="矩形" fill="#263238" transform="translate(300.100235, 167.992639) scale(-1, 1) translate(-300.100235, -167.992639) " x="276.244034" y="158.427832" width="47.7124034" height="19.1296134"></rect>
                    
                    <rect id="矩形" fill="#263238" transform="translate(297.080773, 85.375361) scale(-1, 1) translate(-297.080773, -85.375361) " x="291.67079" y="72.3908571" width="10.8199664" height="25.9690084" rx="4.34541176"></rect>
                    <path d="M301.810084,114.41284 L301.265546,114.41284 L301.265546,86.9517983 C301.268547,84.2253312 303.478037,82.0158414 306.204504,82.0128403 L307.511395,82.0128403 L307.511395,82.5573782 L306.204504,82.5573782 C303.778777,82.5603784 301.813084,84.5260709 301.810084,86.9517983 L301.810084,114.41284 Z" id="路径" fill="#263238" transform="translate(304.388471, 98.212840) scale(-1, 1) translate(-304.388471, -98.212840) "></path>
                    <path d="M303.060907,114.445513 L301.547092,88.7705546 C301.504123,87.8835907 301.824033,87.017345 302.433184,86.3712134 C303.042335,85.7250817 303.888246,85.3547316 304.776201,85.3454118 L304.776201,85.8899496 C304.035488,85.8901716 303.327643,86.1958123 302.819566,86.7348066 C302.311489,87.2738008 302.048147,87.9984461 302.09163,88.7378824 L303.605445,114.418286 L303.060907,114.445513 Z" id="路径" fill="#263238" transform="translate(303.159731, 99.895462) scale(-1, 1) translate(-303.159731, -99.895462) "></path>
                    <rect id="矩形" fill="#263238" transform="translate(305.213445, 116.190756) scale(-1, 1) translate(-305.213445, -116.190756) " x="301.543261" y="111.940639" width="7.34036975" height="8.50023529"></rect>
                    <path d="M248.785855,116.727126 C248.785855,116.727126 248.938326,116.727126 249.210594,116.661782 C249.610945,116.590634 249.992615,116.438707 250.332342,116.215261 C250.868017,115.864165 251.269129,115.342143 251.470426,114.734118 C251.593487,114.354901 251.64338,113.955756 251.617452,113.557916 C251.60571,113.116815 251.492019,112.684419 251.285284,112.294588 C250.802723,111.385873 249.863652,110.811996 248.834863,110.797109 L245.240914,110.797109 L237.007502,110.797109 C235.588387,110.799075 234.396249,111.864739 234.235805,113.274756 C234.150255,113.921457 234.27027,114.578685 234.578863,115.153412 C234.884917,115.697086 235.364163,116.122656 235.940208,116.362286 C236.509772,116.560064 237.114917,116.634315 237.715401,116.580101 L239.457922,116.580101 L242.589015,116.580101 L247.125015,116.623664 L248.361115,116.623664 C248.503423,116.62065 248.645683,116.631593 248.785855,116.656336 C248.644909,116.673488 248.503098,116.682579 248.361115,116.683563 L247.125015,116.683563 L242.589015,116.727126 L239.457922,116.727126 L237.715401,116.727126 C237.41046,116.727126 237.11641,116.727126 236.795132,116.727126 C236.46836,116.702719 236.147118,116.629292 235.842191,116.509311 C235.212334,116.247885 234.687402,115.78426 234.350157,115.191529 C234.012001,114.567708 233.878648,113.853319 233.968981,113.149513 C234.143247,111.601915 235.450129,110.430874 237.007502,110.426824 L245.240914,110.426824 L248.834863,110.426824 C250.467907,110.459104 251.77981,111.783066 251.797149,113.416336 C251.814449,113.832386 251.753494,114.247986 251.617452,114.641546 C251.393461,115.273844 250.961497,115.811399 250.392242,116.166252 C250.037033,116.387373 249.637158,116.526865 249.221485,116.574655 C249.083051,116.643089 248.93675,116.694295 248.785855,116.727126 L248.785855,116.727126 Z" id="路径" fill="#263238" transform="translate(242.870743, 113.576975) scale(-1, 1) translate(-242.870743, -113.576975) "></path>
                    <path d="M247.290958,109.887731 C245.739391,110.024247 244.181156,110.069703 242.624269,110.023866 C241.065569,110.069791 239.505516,110.024335 237.952134,109.887731 C239.505302,109.747519 241.065461,109.700241 242.624269,109.746151 C244.181263,109.700328 245.739605,109.747606 247.290958,109.887731 L247.290958,109.887731 Z" id="路径" fill="#FFFFFF" transform="translate(242.621546, 109.885182) scale(-1, 1) translate(-242.621546, -109.885182) "></path>
                    <path d="M221.142252,177.715361 L216.78595,177.399529 C217.924034,161.798521 219.590319,152.465143 221.882824,148.865748 C226.282689,141.950118 230.655328,140.697681 235.496269,139.875429 C240.005042,139.10763 244.551933,139.287328 248.951798,139.467025 L250.040874,139.510588 C259.123765,139.864538 278.149916,139.548706 278.35684,139.548706 L278.42763,143.905008 C278.237042,143.905008 259.091092,144.226286 249.888403,143.866891 L248.799328,143.823328 C244.622723,143.659966 240.309983,143.480269 236.247731,144.177277 C231.918655,144.912403 229.03805,145.756437 225.563899,151.212706 C224.512941,152.840874 222.541714,158.498622 221.142252,177.715361 Z" id="路径" fill="#263238" transform="translate(247.606790, 158.512936) scale(-1, 1) translate(-247.606790, -158.512936) "></path>
                    
                    <rect id="矩形" fill="#FFC727" transform="translate(107.268504, 71.421580) scale(-1, 1) translate(-107.268504, -71.421580) " x="0" y="0" width="214.537008" height="142.84316"></rect>
                    
                    <g id="编组-2" transform="translate(107.631126, 72.092975) scale(-1, 1) translate(-107.631126, -72.092975) translate(2.631126, 3.092975)">
                        <path d="M209.788639,136.924034 C209.788639,136.003765 209.745076,83.6137815 209.674286,0.136134454 L209.788639,0.245042017 L0.141579832,0.277714286 L0.141579832,0.277714286 L0.283159664,0.136134454 C0.283159664,48.757916 0.283159664,95.0381849 0.283159664,136.924034 L0.152470588,136.793345 L209.799529,136.924034 L0.152470588,137.054723 L0,137.054723 L0,136.924034 C0,95.0381849 0,48.757916 0,0.136134454 L0,0 L0.157915966,0 L209.804975,0.0272268908 L209.919328,0.0272268908 L209.919328,0.141579832 C209.832202,83.6137815 209.788639,136.00921 209.788639,136.924034 Z" id="路径" transform="translate(104.959664, 68.527361) scale(-1, 1) translate(-104.959664, -68.527361) "></path>
                        <g id="编组" opacity="0.5" transform="translate(101.147899, 76.662185) scale(-1, 1) translate(-101.147899, -76.662185) translate(20.147899, 38.662185)" fill="#DEAC1D">
                            <polygon id="路径" points="0.468302521 34.8722017 2.49398319 75.7288739 161.602487 42.6318655 158.787227 0.0435630252"></polygon>
                        </g>
                        <path d="M153.867404,101.828571 L154.956479,98.0168067 C157.086185,98.933364 159.449913,99.1581182 161.714193,98.6593613 C164.148278,98.1148235 165.525958,96.9604034 165.204681,95.5609412 C164.54579,92.4951933 155.403,96.1762689 154.079773,90.0665546 C153.23574,86.1241008 156.138126,82.8350924 161.452815,81.6970084 C164.028479,81.1524706 166.533353,81.2069244 168.43379,81.9148235 L167.480849,85.6557983 C165.716566,84.9923152 163.795478,84.8653794 161.959236,85.290958 C159.383572,85.8354958 158.087572,87.1532773 158.381622,88.5255126 C159.035067,91.6783866 168.21053,87.9809748 169.479303,93.8783193 C170.328782,97.8534454 167.371941,101.153345 162.030025,102.296874 C158.915269,102.972101 155.75695,102.672605 153.867404,101.828571 Z" id="路径" fill="#FFFFFF" transform="translate(161.745466, 91.999347) scale(-1, 1) translate(-161.745466, -91.999347) "></path>
                        <polygon id="路径" fill="#FFFFFF" transform="translate(142.078084, 87.765882) scale(-1, 1) translate(-142.078084, -87.765882) " points="150.733513 75.8813445 151.011227 95.8767731 146.573244 96.8297143 146.458891 88.6888739 137.773513 90.5511933 137.893311 98.7192605 133.422655 99.6504202 133.144941 79.6495462 137.610151 78.6911597 137.719059 86.5488403 146.404437 84.686521 146.295529 76.8288403"></polygon>
                        <polygon id="路径" fill="#FFFFFF" transform="translate(126.515193, 84.425143) scale(-1, 1) translate(-126.515193, -84.425143) " points="124.149176 74.9066218 128.603496 73.9482353 128.88121 93.9436639 124.416 94.9020504"></polygon>
                        <path d="M119.687622,75.6907563 C120.733135,80.5643697 117.798076,84.4033613 112.064093,85.6067899 L107.789471,86.5216134 L107.871152,92.0268908 L103.405942,92.9852773 L103.144563,72.9680672 L110.898782,71.3344538 C115.690715,70.2834958 118.881706,71.9225546 119.687622,75.6907563 Z M115.276866,77.0357647 C114.879353,75.1734454 113.376429,74.5798992 111.127488,75.0645378 L107.647891,75.8105546 L107.735017,82.7534118 L111.486883,81.9474958 C114.405606,81.3049412 115.821404,79.5678655 115.276866,77.0194286 L115.276866,77.0357647 Z" id="形状" fill="#FFFFFF" transform="translate(111.520450, 82.003735) scale(-1, 1) translate(-111.520450, -82.003735) "></path>
                        <path d="M99.926345,71.4270252 C100.971858,76.3278655 98.0367988,80.1396303 92.3028156,81.3430588 L88.0336391,82.2633277 L88.1262106,87.768605 L83.6610005,88.7269916 L83.3778408,68.731563 L91.1320593,67.0652773 C95.9403282,66.0361008 99.1313198,67.6751597 99.926345,71.4270252 Z M95.5155887,72.777479 C95.1180761,70.9097143 93.6097064,70.3161681 91.3662106,70.8008067 L87.8866139,71.5468235 L87.97374,78.4951261 L91.7256055,77.6892101 C94.6661097,77.0575462 96.0710173,75.3204706 95.5264795,72.777479 L95.5155887,72.777479 Z" id="形状" fill="#FFFFFF" transform="translate(91.756450, 77.745217) scale(-1, 1) translate(-91.756450, -77.745217) "></path>
                        <polygon id="路径" fill="#FFFFFF" transform="translate(77.945143, 74.005412) scale(-1, 1) translate(-77.945143, -74.005412) " points="75.570958 64.4841681 80.0361681 63.5257815 80.3193277 83.5266555 75.8541176 84.485042"></polygon>
                        <polygon id="路径" fill="#FFFFFF" transform="translate(62.406756, 70.689176) scale(-1, 1) translate(-62.406756, -70.689176) " points="71.0458487 58.810084 71.3290084 78.8055126 67.680605 79.5896471 57.960605 69.1018487 58.1239664 81.6262185 53.7676639 82.5682689 53.4845042 62.567395 57.1546891 61.7778151 66.8855798 72.2710588 66.6895462 59.7466891"></polygon>
                        <path d="M45.9955907,64.7074286 L50.0523974,63.8361681 L50.1558596,72.0641345 C48.3574194,74.0699044 45.9580214,75.4396244 43.3164647,75.9684706 C37.5062462,77.2154622 33.111826,74.6343529 32.0499773,69.6790588 C30.6450697,63.144605 34.3751537,57.1546891 41.6338428,55.5864202 C45.3040277,54.7968403 48.2390865,55.3958319 50.3464479,57.2200336 L47.7217756,60.4872605 C46.0881621,59.2293782 44.3892042,58.968 42.2763974,59.4254118 C37.7839605,60.3892437 35.6003638,64.2391261 36.5042966,68.4592941 C37.1196243,71.3344538 39.4556916,72.8700504 43.0986495,72.085916 C44.1986388,71.8612418 45.2347602,71.3943361 46.1317252,70.7191261 L45.9955907,64.7074286 Z" id="路径" fill="#FFFFFF" transform="translate(41.051947, 65.762776) scale(-1, 1) translate(-41.051947, -65.762776) "></path>
                        <polygon id="路径" fill="#FF6C23" transform="translate(98.990218, 41.892588) scale(-1, 1) translate(-98.990218, -41.892588) " points="47.0201681 71.4161345 150.960269 47.6387564 150.927597 12.3690422 47.0201681 35.7325714"></polygon>
                        
                        <polygon id="star1" fill="#FAFAFA" transform="translate(172.510790, 57.962151) scale(-1, 1) translate(-172.510790, -57.962151) " points="161.347765 61.7630252 183.673815 56.5354622 182.791664 54.1612773"></polygon>
                        <polygon id="star2" fill="#FAFAFA" transform="translate(100.181345, 108.088034) scale(-1, 1) translate(-100.181345, -108.088034) " points="84.1256471 113.557916 116.237042 106.032403 114.973714 102.618151"></polygon>
                        <polygon id="star3" fill="#FAFAFA" transform="translate(27.832908, 30.262689) scale(-1, 1) translate(-27.832908, -30.262689) " points="11.7772101 35.7325714 43.888605 28.2125042 42.6198319 24.7928067"></polygon>
                        <path d="M183.166212,67.8330756 C183.166212,67.9093109 175.814951,69.4666891 166.710279,71.2963361 C157.605607,73.1259832 150.216229,74.563563 150.199866,74.4873277 C150.183557,74.4110924 157.551153,72.8537143 166.655825,71.0186218 C175.760498,69.1835294 183.149876,67.7568403 183.166212,67.8330756 Z" id="路径" fill="#FAFAFA" transform="translate(166.683039, 71.160191) scale(-1, 1) translate(-166.683039, -71.160191) "></path>
                    </g>
                    
                    <path d="M266.404235,67.6424874 C266.404235,67.6424874 266.338891,67.7078319 266.202756,67.8112941 L265.603765,68.241479 C265.059227,68.6172101 264.31321,69.1399664 263.365714,69.7879664 C261.465277,71.0730756 258.818824,72.8264874 255.867429,74.7160336 C252.916034,76.6055798 250.220571,78.2773109 248.243899,79.4698487 C247.263731,80.063395 246.463261,80.5589244 245.907832,80.8638655 L245.265277,81.2232605 C245.192085,81.270612 245.113472,81.3090044 245.031126,81.3376134 C245.031126,81.3376134 245.096471,81.2722689 245.232605,81.1796975 L245.847933,80.7658487 L248.140437,79.301042 L255.704067,74.476437 L263.240471,69.6191597 L265.532975,68.1543529 L266.164639,67.7622857 C266.23995,67.7138287 266.320283,67.6736622 266.404235,67.6424874 Z" id="路径" fill="#FAFAFA" transform="translate(255.717681, 74.490050) scale(-1, 1) translate(-255.717681, -74.490050) "></path>
                    <path d="M275.710387,70.1037983 C275.710387,70.1037983 275.645042,70.1691429 275.508908,70.272605 L274.909916,70.7027899 C274.365378,71.0730756 273.619361,71.6012773 272.66642,72.2438319 C270.765983,73.5343866 268.119529,75.2823529 265.17358,77.1446723 C262.22763,79.0069916 259.526723,80.711395 257.55005,81.9039328 C256.569882,82.497479 255.769412,82.9930084 255.213983,83.2925042 L254.571429,83.6573445 C254.499469,83.705519 254.420483,83.7422571 254.337277,83.7662521 C254.398315,83.7062385 254.465898,83.653268 254.538756,83.6083361 L255.154084,83.1999328 L257.441143,81.7296807 L265.010218,76.910521 L272.546622,72.0532437 L274.839126,70.5829916 L275.465345,70.1963697 C275.542596,70.1548648 275.624988,70.1237388 275.710387,70.1037983 L275.710387,70.1037983 Z" id="路径" fill="#FAFAFA" transform="translate(265.023832, 76.935025) scale(-1, 1) translate(-265.023832, -76.935025) "></path>
                    <path d="M300.127586,85.9552941 C300.044137,85.8064779 299.987028,85.6443623 299.958779,85.4761008 C299.871653,85.1657143 299.751855,84.7083025 299.61572,84.1419832 C299.257728,82.6619718 299.074961,81.1450071 299.071182,79.6223193 C299.063463,78.0840908 299.417893,76.5656394 300.105804,75.1897815 C300.320993,74.7781126 300.580261,74.3910357 300.879048,74.0353613 C300.979798,73.8994826 301.101042,73.7800762 301.238443,73.6814118 C300.890836,74.1976984 300.570923,74.7320996 300.280056,75.2823529 C299.65951,76.6504313 299.341877,78.1364347 299.348897,79.6386555 C299.365407,81.1428452 299.527713,82.6418911 299.833535,84.1147563 C299.969717,84.7215598 300.067924,85.3362654 300.127586,85.9552941 L300.127586,85.9552941 Z" id="路径" fill="#FAFAFA" transform="translate(300.154751, 79.818353) scale(-1, 1) translate(-300.154751, -79.818353) "></path>
                    <path d="M321.1082,124.563025 C321.088507,124.369306 321.088507,124.174089 321.1082,123.98037 C321.1082,123.588303 321.1082,123.021983 321.140872,122.346756 C321.184435,120.947294 321.287897,119.014185 321.456704,116.901378 C321.625511,114.788571 321.82699,112.850017 322.001242,111.456 C322.088368,110.758992 322.164603,110.198118 322.224502,109.822387 C322.245,109.620643 322.286986,109.421666 322.349746,109.22884 C322.377105,109.431214 322.377105,109.636349 322.349746,109.838723 L322.208166,111.472336 C322.088368,112.931697 321.925007,114.821244 321.745309,116.917714 C321.565612,119.014185 321.456704,120.898286 321.353242,122.363092 C321.304233,123.016538 321.26067,123.566521 321.227998,123.996706 C321.211422,124.189675 321.171188,124.379874 321.1082,124.563025 L321.1082,124.563025 Z" id="路径" fill="#FAFAFA" transform="translate(321.731848, 116.895933) scale(-1, 1) translate(-321.731848, -116.895933) "></path>
                    <path d="M277.442017,135.132504 C277.442017,135.192403 276.391059,135.339429 274.762891,135.86763 C273.809863,136.177059 272.879997,136.553736 271.980303,136.994824 C269.775772,138.089689 267.781333,139.564321 266.088403,141.351126 C265.397083,142.076132 264.758353,142.849523 264.177076,143.665412 C263.191462,145.064874 262.728605,146.028706 262.679597,146.001479 C262.760548,145.764125 262.862603,145.534501 262.984538,145.315361 C263.106373,145.049308 263.244588,144.791064 263.398387,144.542118 C263.572639,144.248067 263.763227,143.905008 264.013714,143.551059 C264.577488,142.709022 265.207519,141.913289 265.897815,141.171429 C266.7534,140.26482 267.684259,139.432331 268.680403,138.682891 C269.685745,137.953114 270.753555,137.313522 271.871395,136.771563 C272.784488,136.3331 273.731416,135.968897 274.702992,135.682487 C275.111395,135.546353 275.498017,135.470118 275.830185,135.388437 C276.115796,135.319166 276.404784,135.26464 276.696,135.225076 C276.941133,135.170395 277.190953,135.139395 277.442017,135.132504 Z" id="路径" fill="#FAFAFA" transform="translate(270.060807, 140.567273) scale(-1, 1) translate(-270.060807, -140.567273) "></path>
                    
                    <path d="M18.247574,178.597513 C18.247574,178.597513 14.272448,141.568941 52.6405824,141.568941 C88.0355404,141.568941 87.251406,173.413513 86.9137925,178.34158 L81.3649522,178.34158 C81.3649522,178.34158 84.1911034,146.95442 52.6405824,146.95442 C21.0900614,146.95442 23.834532,178.978689 23.834532,178.978689 C23.834532,178.978689 21.5039102,178.864336 18.247574,178.597513 Z" id="路径" fill="#455A64" transform="translate(52.561569, 160.273815) scale(-1, 1) translate(-52.561569, -160.273815) "></path>
                    <path d="M86.69,59.8320041 C88.49,59.3990486 89.89,58.7023054 90.89,57.7417745 C91.89,56.7612436 92.39,55.6409782 92.39,54.3609782 C92.39,53.0409782 91.77,52.1701073 90.55,51.723555 C89.99,51.5182523 88.73,51.3613212 86.81,51.2231404 C85.47,51.1454518 84.65,51.0426871 84.33,50.939657 C83.61,50.7328392 83.27,50.3146197 83.27,49.6746197 C83.27,48.9546197 83.57,48.3624605 84.19,47.8933313 C84.69,47.4930659 85.41,47.1798837 86.35,46.9537846 C87.43,46.6940113 88.23,46.7015866 88.79,46.9868893 C89.35,47.252192 89.71,47.8456009 89.91,48.7174947 L92.07,48.1979481 C91.93,46.6716224 91.37,45.6663197 90.37,45.1668505 C89.43,44.6729496 88.13,44.6456397 86.47,45.0449209 C84.95,45.4105279 83.69,46.0535968 82.69,46.9741276 C81.63,47.9490904 81.11,49.0541664 81.11,50.3141664 C81.11,51.5541664 81.65,52.3842797 82.75,52.7796958 C83.19,52.9138622 84.27,53.0340889 86.03,53.1707545 C87.61,53.2707157 88.55,53.3646167 88.87,53.4476468 C89.77,53.6911691 90.23,54.2005249 90.23,55.0005249 C90.23,55.6405249 89.91,56.2174947 89.27,56.7314345 C88.63,57.2453743 87.77,57.6522308 86.69,57.9120041 C85.49,58.2006412 84.61,58.1923084 84.03,57.8918163 C83.39,57.565756 82.99,56.8419684 82.83,55.7604533 L80.67,56.28 C80.79,58.0511363 81.43,59.2171965 82.61,59.7733701 C83.59,60.2176499 84.95,60.2505279 86.69,59.8320041 Z M95.33,57.4738174 L96.67,53.471506 L102.81,51.9946465 L104.15,55.3523351 L106.49,54.7894929 L100.99,41.8324127 L98.51,42.4289292 L93.01,58.031849 L95.33,57.4738174 Z M102.15,50.3533969 L97.33,51.5127557 L99.71,44.4802922 L99.79,44.4610497 L102.15,50.3533969 Z M110.07,53.9283923 L110.07,47.5283923 L117.17,45.8206232 L117.17,43.9606232 L110.07,45.6683923 L110.07,41.5083923 L117.59,39.6996002 L117.59,37.8396002 L107.89,40.1727496 L107.89,54.4527496 L110.07,53.9283923 Z M130.11,49.1081537 L130.11,47.2481537 L121.69,49.2734236 L121.69,44.7334236 L129.29,42.905389 L129.29,41.045389 L121.69,42.8734236 L121.69,38.7134236 L129.77,36.7699342 L129.77,34.9099342 L119.51,37.3777809 L119.51,51.6577809 L130.11,49.1081537 Z M138.17,47.1694748 L138.17,34.7494748 L142.93,33.6045479 L142.93,31.7445479 L131.23,34.5587591 L131.23,36.4187591 L136.01,35.2690215 L136.01,47.6890215 L138.17,47.1694748 Z M151.17,44.0425735 L151.17,38.3425735 L156.83,28.4011687 L154.21,29.0313596 L150.09,36.5623468 L145.97,31.013334 L143.35,31.6435249 L149.01,38.8621202 L149.01,44.5621202 L151.17,44.0425735 Z" id="SAFETY" fill="#FFFFFF"></path>
                
                    <g id="chelun1">
                        <path d="M219.276809,171.00121 C219.279714,171.024717 219.279714,171.048493 219.276809,171.072 C219.086668,185.476049 230.600134,197.311675 245.003946,197.51901 C259.407758,197.726346 271.25712,186.227016 271.481649,171.823462 C271.481649,171.823462 271.481649,171.779899 271.481649,171.758118 L219.276809,171.00121 Z" id="路径" fill="#263238" transform="translate(245.378068, 184.261490) scale(-1, 1) translate(-245.378068, -184.261490) "></path>
                        <circle id="椭圆形" fill="#263238" transform="translate(245.396633, 171.451871) scale(-1, 1) rotate(-2.200000) translate(-245.396633, -171.451871) " cx="245.396633" cy="171.451871" r="26.1051429"></circle>
                        <path d="M227.053895,171.180908 C226.944529,178.594185 231.311958,185.343257 238.11936,188.280587 C244.926763,191.217916 252.833297,189.764941 258.151623,184.59928 C263.469948,179.433619 265.152523,171.572744 262.414651,164.682701 C259.676779,157.792658 253.057735,153.230567 245.644417,153.124034 C235.525291,152.978616 227.20318,161.061838 227.053895,171.180908 Z" id="路径" fill="#FAFAFA" transform="translate(245.381334, 171.451503) scale(-1, 1) translate(-245.381334, -171.451503) "></path>
                        <path d="M234.218609,171.28437 C234.15299,175.7992 236.813669,179.908943 240.959843,181.697027 C245.106016,183.485111 249.921059,182.599357 253.159484,179.452835 C256.39791,176.306313 257.421881,171.518759 255.753871,167.322839 C254.085861,163.126919 250.054399,160.349058 245.539551,160.284706 C239.376232,160.196858 234.308187,165.121076 234.218609,171.28437 L234.218609,171.28437 Z" id="路径" fill="#263238" transform="translate(245.380632, 171.446731) scale(-1, 1) translate(-245.380632, -171.446731) "></path>
                        <rect x="244.596633" y="167.451871" width="1" height="8" stroke-width="3" fill="white" />
                        <animateTransform 
                            attributeName="transform" 
                            attributeType="XML" 
                            type="rotate"
                            from="0 245.5 171.5"
                            to="360 245.5 171.5" 
                            dur="1s" 
                            repeatCount="indefinite"/>
                    </g>
                    <g id="chelun2">
                        <path d="M26.4618531,172.295529 C26.4618531,172.295529 26.4618531,172.34537 26.4618531,172.367521 C26.2543426,187.026863 37.7713546,199.081685 52.1858195,199.292721 C66.6002844,199.503757 78.4537375,187.791091 78.6612481,173.131749 L78.6612481,173.065295 L26.4618531,172.295529 Z" id="路径" fill="#263238" transform="translate(52.560170, 185.795529) scale(-1, 1) translate(-52.560170, -185.795529) "></path>
                        <path d="M51.5024369,199.273557 C37.0964786,198.677734 25.8851509,186.116249 26.4612356,171.216695 C27.0373203,156.317141 39.1826659,144.721676 53.5886241,145.3175 C67.9945824,145.913323 79.2059101,158.474808 78.6298254,173.374362 C78.0537407,188.273916 65.9083952,199.869381 51.5024369,199.273557 Z" id="椭圆形" fill="#263238"></path>
                        <path d="M34.2443655,172.020859 C34.0980986,182.512649 42.1816756,191.141076 52.300001,191.293483 C62.4183264,191.445889 70.7401972,183.064569 70.8878944,172.572801 C71.0355916,162.081033 62.953191,153.451422 52.8348865,153.297532 C42.7157607,153.146747 34.39365,161.528309 34.2443655,172.020859 L34.2443655,172.020859 Z" id="路径" fill="#FAFAFA" transform="translate(52.566149, 172.295529) scale(-1, 1) translate(-52.566149, -172.295529) "></path>
                        <path d="M41.3759875,172.628269 C41.3103685,177.279322 43.9710471,181.513064 48.1172207,183.355099 C52.2633944,185.197133 57.0784371,184.284654 60.3168625,181.043195 C63.555288,177.801735 64.5792593,172.86973 62.9112493,168.54721 C61.2432393,164.22469 57.2117775,161.363014 52.6969287,161.296721 C46.5336097,161.206222 41.4655656,166.279014 41.3759875,172.628269 L41.3759875,172.628269 Z" id="路径" fill="#263238" transform="translate(52.538011, 172.795529) scale(-1, 1) translate(-52.538011, -172.795529) "></path>
                        <!-- <rect x="52.396633" y="168.451871" width="1" height="8" stroke-width="3" fill="white" /> -->
                        <!-- <animateTransform
                            attributeName="transform" 
                            attributeType="XML" 
                            type="rotate"
                            from="0 53.5 172.5"
                            to="360 53.5 172.5" 
                            dur="1s" 
                            repeatCount="indefinite"/> -->
                    </g>
                </g>
            </g>
        </g>
    </g>

    <style>
        @keyframes shootingStarFall1 {
            0% {
                opacity: 0;
            }
            10% {
                opacity: 1;
                transform: translate(420px, 20px) scale(-1, 1);
            }
            40% {
                opacity: 1;
            }
            44% {
                opacity: 0;
            }
            85% {
                opacity: 0;
            }
            90% {
                opacity: 1;
            }
            100% {
                opacity: 1;
                transform: translate(180px, -45px) scale(-1, 1);
            }
        }

        @keyframes shootingStarFall2 {
            0% {
                transform: translate(400px, 50px) scale(-1, 1);
                opacity: 0;
            }
            60% {
                opacity: 1;
            }
            80% {
                opacity: 0;
            }
            100% {
                opacity: 0;
                transform: translate(10px, -30px) scale(-1, 1);
            }
        }

        @keyframes shootingStarFall3 {
            0% {
                transform: translate(255px, 40px) scale(-1, 1);
                opacity: 1;
            }
            29% {
                opacity: 1;
            }
            30% {
                opacity: 0;
            }
            88% {
                opacity: 0;
            }
            89% {
                opacity: 1;
            }
            98% {
                opacity: 1;
            }
            100% {
                opacity: 0;
                transform: translate(35px, -15px) scale(-1, 1);
            }
        }
        #star1 {
            animation: shootingStarFall1 2s linear infinite;
        }
        #star2 {
            animation: shootingStarFall2 3s linear infinite;
        }
        #star3 {
            animation: shootingStarFall3 3.5s linear infinite;
        }
    </style>
</svg>